<svg xmlns="http://www.w3.org/2000/svg" width="24.914" height="31" viewBox="0 0 24.914 31">
  <path id="Path_65" data-name="Path 65" d="M6539.6,6984.72h-18.511c-1.759,0-3.2-1.784-3.2-3.97v-23.057c0-2.185,1.442-3.973,3.2-3.973H6539.6c1.762,0,3.2,1.788,3.2,3.973v23.057C6542.8,6982.936,6541.361,6984.72,6539.6,6984.72ZM6522.837,6967h-2.567v13.539a1.131,1.131,0,0,0,.99,1.228h18.194a1.129,1.129,0,0,0,.991-1.228V6967h-2.586a11.667,11.667,0,0,1,.222,2.207c0,5.305-3.458,9.608-7.729,9.608s-7.727-4.3-7.727-9.608A11.917,11.917,0,0,1,6522.837,6967Zm7.508-4.42c2.946,0,5.336,2.972,5.336,6.638s-2.391,6.634-5.336,6.634-5.339-2.969-5.339-6.634S6527.4,6962.576,6530.345,6962.576Zm8.546-5.167h-2.259a1.086,1.086,0,0,0-.947,1.178v2.81a1.08,1.08,0,0,0,.947,1.171h2.259a1.08,1.08,0,0,0,.946-1.171v-2.81A1.086,1.086,0,0,0,6538.891,6957.408Z" transform="translate(-6517.887 -6953.72)" fill="#001aff" fill-rule="evenodd"/>
</svg>
