<svg id="head2" xmlns="http://www.w3.org/2000/svg" width="1930" height="766" viewBox="0 0 1930 766">
  <g id="head">
    <path id="duotone_3_" data-name="duotone (3)" d="M0,0H1920V725.409H0Z" transform="translate(0 6)" fill="#232323"/>
    <path id="Path_47" data-name="Path 47" d="M684.722,725.409s87.116-257.423,344.367-161.594S1088,246,1396,314c282.741,62.423,87.928-258.17,288-320,.03-.009,9.432,736.654,12,746Z" transform="translate(234 6)" fill="#6bc1ff"/>
    <path id="Path_48" data-name="Path 48" d="M1049.185,669.254s109.311,20.8,148.3-72.551,129.972-171.142,270.342-140.025,160.266-6.792,246.813-116.718c52.009-66.059,118.368-149.261,210.182-188.167,0,0,2.913,97.187,0,126s0,194,0,194v232Z" transform="translate(0 62.207)" fill="#26272a"/>
  </g>
</svg>
