<svg xmlns="http://www.w3.org/2000/svg" xmlns:xlink="http://www.w3.org/1999/xlink" width="1893" height="1106" viewBox="0 0 1893 1106">
  <defs>
    <clipPath id="clip-hero-white">
      <rect width="1893" height="1106"/>
    </clipPath>
  </defs>
  <g id="hero-white" clip-path="url(#clip-hero-white)">
    <rect width="1893" height="1106" fill="#fcfcfc"/>
    <g id="Component_26_5" data-name="Component 26 – 5">
      <path id="Path_2" data-name="Path 2" d="M0,0H1893V111H0Z" fill="#131212"/>
    </g>
    <text id="Contact" transform="translate(1705 71)" fill="#fb0a0a" font-size="37" font-family="SegoeUI, Segoe UI"><tspan x="0" y="0">Contact</tspan></text>
    <text id="Graphics" transform="translate(1513 71)" fill="#fb0a0a" font-size="37" font-family="SegoeUI, Segoe UI"><tspan x="0" y="0">Graphics</tspan></text>
    <text id="Photography" transform="translate(1240 71)" fill="#fb0a0a" font-size="37" font-family="SegoeUI, Segoe UI"><tspan x="0" y="0">Photography</tspan></text>
    <text id="Home" transform="translate(828 71)" fill="#fcfcfc" font-size="37" font-family="SegoeUI, Segoe UI"><tspan x="0" y="0">Home</tspan></text>
    <text id="videography" transform="translate(977 71)" fill="#fb0a0a" font-size="37" font-family="SegoeUI, Segoe UI"><tspan x="0" y="0">videography</tspan></text>
    <line id="Line_1" data-name="Line 1" x2="282" transform="translate(805.5 821.5)" fill="none" stroke="#131212" stroke-width="12"/>
    <g id="Component_94_1" data-name="Component 94 – 1" transform="translate(20 11)">
      <g id="Component_41_2" data-name="Component 41 – 2">
        <g id="Component_33_1" data-name="Component 33 – 1" transform="translate(145 3)">
          <path id="Path_166" data-name="Path 166" d="M43.817,0A43.5,43.5,0,1,1,0,43.5,43.66,43.66,0,0,1,43.817,0Z" transform="translate(0)" fill="#fcfcfc"/>
          <g id="Component_32_1" data-name="Component 32 – 1" transform="translate(18.743 23.242)">
            <path id="Path_151" data-name="Path 151" d="M443,147.59l5-1s-4.2,4.7-5,5h0a20.115,20.115,0,0,0,0,3c-9.6,41.2-45,23-45,23,12.9.3,14-5,14-5-7.5-1.1-9-6-9-6a3.09,3.09,0,0,0,4-1c-8.1-2.1-7-10-7-10a10.4,10.4,0,0,0,4.9,1.9c-.9-1.1-8.5-10.2-3.9-14.9,0,0,5.6,10,20.3,10.9l1-.2a7.85,7.85,0,0,1-.2-2.2,10.5,10.5,0,0,1,10.5-10.5c7,0,8.5,4,8.5,4l5-3C446,141.59,445.5,146.59,443,147.59Z" transform="translate(-398 -140.59)" fill="#fb0a0a"/>
          </g>
        </g>
        <g id="Component_38_1" data-name="Component 38 – 1" transform="translate(295 3)">
          <g id="Component_33_3" data-name="Component 33 – 3">
            <path id="Path_166-2" data-name="Path 166" d="M44,0C68.3,0,88,19.252,88,43S68.3,86,44,86,0,66.748,0,43,19.7,0,44,0Z" fill="#fcfcfc"/>
          </g>
          <path id="Path_289" data-name="Path 289" d="M15,0,0,24.267l1.4.982H28.6l1.4-.982Z" transform="translate(56.54 27.831) rotate(90)" fill="#fb0a0a"/>
        </g>
        <g id="Component_39_1" data-name="Component 39 – 1">
          <path id="Path_166-3" data-name="Path 166" d="M44,0C68.3,0,88,19.923,88,44.5S68.3,89,44,89,0,69.077,0,44.5,19.7,0,44,0Z" fill="#fcfcfc"/>
          <path id="Path_149" data-name="Path 149" d="M11.684,13.54l2.81,4.13,6.62-4.5,4.23,8-5.79,3.94L33.6,45.77l-9.1,6.18L10.444,31.28l-4.13,2.81-5.07-7.42,4.13-2.81-2.79-4.09s-6.09-7.35.43-13.59L12.114,0l4.5,6.62-4.13,2.81a3,3,0,0,0-.8,4.11Z" transform="matrix(0.848, 0.53, -0.53, 0.848, 43.608, 13.429)" fill="#fb0a0a"/>
        </g>
      </g>
      <g id="Component_77_1" data-name="Component 77 – 1" transform="translate(383 447)">
        <text id="Unrivaled_" data-name="Unrivaled " transform="translate(0 263)" fill="#0a0a0a" font-size="244" font-family="SegoeUI, Segoe UI"><tspan x="0" y="0">Unrivaled </tspan></text>
      </g>
    </g>
  </g>
</svg>
