<?xml version="1.0" ?><svg style="enable-background:new 0 0 48 48;" version="1.1" viewBox="0 0 48 48" xml:space="preserve" xmlns="http://www.w3.org/2000/svg" xmlns:xlink="http://www.w3.org/1999/xlink"><g id="Padding__x26__Artboard"/><g id="Icons"><g><path d="M26.84536,10.32387c-0.62891,1.00488-0.8291,2.19434-0.56348,3.34961    c0.41339,1.79797,1.87299,3.08801,3.58734,3.37976L29.7521,15.8644c-0.0166-0.16455,0.104-0.31152,0.26904-0.32764    c0.16797-0.0127,0.31152,0.10449,0.32764,0.26904l0.12744,1.29333c0.37122,0.01123,0.74664-0.00739,1.125-0.0946    c2.38525-0.54785,3.87988-2.93408,3.33154-5.31934c-0.10291-0.44757-0.28058-0.85663-0.50085-1.23389l-1.97327,1.5127    c-0.05469,0.0415-0.11865,0.06152-0.18262,0.06152c-0.08984,0-0.1792-0.04004-0.23828-0.11719    c-0.10058-0.13135-0.07568-0.31982,0.05566-0.4209l1.99805-1.53174c-0.13519-0.1723-0.28082-0.33258-0.4386-0.48199    l-2.70935,1.97272c-0.05322,0.03857-0.11523,0.05713-0.17676,0.05713c-0.09229,0-0.18359-0.04248-0.24268-0.12305    c-0.09717-0.13428-0.06787-0.32178,0.06592-0.41943l2.58618-1.88306c-0.73944-0.52667-1.62994-0.83691-2.56775-0.8371    c0,0-0.00085,0.00043-0.00134,0.00043c0,0-0.00134-0.00037-0.00201-0.00037c-0.32727,0.00024-0.65997,0.03668-0.99213,0.11316    C28.45718,8.61928,27.47476,9.31899,26.84536,10.32387z" style="fill:#303030;"/><path d="M17.50308,17.11782c1.84534,0,3.42896-1.13336,4.09747-2.7395l-1.18488-0.1521    c-0.16455-0.021-0.28076-0.17139-0.25928-0.33545c0.02051-0.16455,0.17285-0.28467,0.33545-0.25928l1.28955,0.16553    c0.09418-0.35925,0.16016-0.72937,0.16016-1.11768c0-2.44727-1.99121-4.43848-4.43848-4.43848    c-0.45935,0-0.89386,0.09009-1.31091,0.22021l1.02869,2.25391c0.06885,0.15088,0.00244,0.32862-0.14844,0.39746    c-0.04053,0.01855-0.08252,0.02734-0.12451,0.02734c-0.11377,0-0.22266-0.06543-0.27295-0.17578l-1.04651-2.29297    c-0.19739,0.09277-0.39185,0.19128-0.57214,0.31097l1.32031,3.09381c0.06494,0.15234-0.00586,0.32861-0.1582,0.39355    c-0.03809,0.0166-0.07812,0.02441-0.11768,0.02441c-0.11621,0-0.22705-0.06836-0.27588-0.18262l-1.25378-2.93793    c-0.91656,0.81372-1.50647,1.98706-1.50647,3.30609C13.0646,15.12661,15.05581,17.11782,17.50308,17.11782z" style="fill:#303030;"/><polygon points="15.10226,36.65883 15.4468,31.26668 15.10208,36.65859   " style="fill:none;"/><path d="M13.69021,15.93496l-0.44366-0.58777C13.24655,15.34719,13.40743,15.64119,13.69021,15.93496z" style="fill:#303030;"/><path d="M34.2839,16.12142c0,0,0.35797-0.45129,0.49371-0.64203L34.2839,16.12142z" style="fill:#303030;"/><path d="M21.56509,31.24428c0.02148-0.00879,2.13135-0.77295,4.19873,0    c0.03467,0.0127,0.06982,0.01904,0.10498,0.01904c0.12158,0,0.23584-0.07471,0.28125-0.19531    c0.05762-0.15527-0.021-0.32812-0.17627-0.38623c-2.28369-0.85205-4.52441-0.03467-4.61816,0    c-0.15527,0.05811-0.23389,0.23047-0.17578,0.38574C21.23745,31.22231,21.40884,31.30043,21.56509,31.24428z" style="fill:none;"/><path d="M37.41665,22.79506c-0.0459-0.07275-0.05273-0.08398,0.05762-0.40234    c0.10986-0.31592,0.29346-0.84521,0.40234-1.79932c0.07422-0.64648-0.1748-1.02002-0.39697-1.21973    c-0.60223-0.54132-1.66534-0.45691-2.16583-0.38049l-0.5119-3.47351c-0.0025-0.01685-0.01923-0.02466-0.02429-0.04028    c-0.13574,0.19073-0.49371,0.64203-0.49371,0.64203c-0.66174,0.70898-1.53387,1.23505-2.54791,1.46808    c-0.37842,0.08691-0.75684,0.12842-1.12939,0.12842c-2.29443,0.00049-4.37402-1.58057-4.90967-3.90967    c-0.30127-1.31152-0.07422-2.66211,0.64014-3.80273c0.67493-1.07764,1.71466-1.83081,2.93274-2.1665    c-5.14532-1.45697-8.80139-0.49304-10.26373,0.05682c0.58997,0.18603,1.12903,0.47217,1.60352,0.84753    c0.51086-0.20343,2.29749-0.82837,4.3598-0.54645c0.16455,0.02246,0.2793,0.17383,0.25684,0.33789    s-0.17773,0.28125-0.33789,0.25684c-1.6181-0.22156-3.07416,0.16919-3.76129,0.4032    c0.8714,0.90607,1.41412,2.13092,1.41412,3.4845c0,2.77832-2.25977,5.03809-5.03809,5.03809    c-1.53131,0-2.88818-0.70105-3.81287-1.78247c-0.28278-0.29376-0.44366-0.58777-0.44366-0.58777    c-0.0495,0.04486-0.09137,0.10034-0.10187,0.17249l-0.51056,3.46521c-0.52142-0.07336-1.53351-0.13251-2.11346,0.38879    c-0.22217,0.19971-0.47119,0.57324-0.39697,1.21973c0.10889,0.95459,0.29297,1.48389,0.40283,1.7998    c0.11035,0.31787,0.10303,0.3291,0.05762,0.40186c-0.2002,0.32031-0.92041,2.11328-0.30908,2.96143    c0.18457,0.25647,0.5722,0.50549,1.3067,0.37054l-0.96576,6.55444l-0.00562,0.03827l-0.06873,0.46643    c-0.01465,0.1001,0.02197,0.20068,0.09717,0.26807l0.38269,0.34015l3.54211,3.14813l0.48285,0.58905l2.12067,2.58722    c0.04443,0.05469,0.10693,0.0918,0.17627,0.10498l3.53564,0.66602c0.0155,0.0097,0.04437,0.02637,0.06598,0.03937l0.09387-0.62012    l0.94214-5.93427h3.5755l1.33313,5.94c0.00348-0.00079,0.00635-0.00342,0.00989-0.00409l0.11963,0.60822    c0.01483-0.00903,0.03735-0.02191,0.04883-0.02911l3.53516-0.66602c0.06934-0.01318,0.13184-0.05029,0.17627-0.10498    l2.18072-2.66528l0.0141-0.01727l0.35809-0.43768l0.11963-0.11243l3.4541-3.07434l0.40167-0.35754    c0.07568-0.06738,0.1123-0.16797,0.09766-0.26807l-0.05847-0.39667L37.3232,32.6285l-0.95911-6.50818    c0.77612,0.16205,1.17218-0.10059,1.36066-0.36334C38.33608,24.90932,37.61684,23.11586,37.41665,22.79506z M24.31118,17.79165    c0.146-0.07666,0.32764-0.01514,0.40234,0.13379l0.33447,0.66748h7.40527l0.53516-0.71338    c0.09863-0.1333,0.2876-0.15869,0.41992-0.05957s0.15918,0.28711,0.05957,0.41992l-0.625,0.83301    c-0.05664,0.0752-0.14551,0.11963-0.23975,0.11963h-0.13733l-0.81628,1.44482c-0.05322,0.09424-0.15283,0.15234-0.26123,0.15234    H27.2228c-0.10303,0-0.19873-0.05273-0.25391-0.13965l-0.91882-1.45752h-1.18762c-0.11377,0-0.21729-0.06396-0.26807-0.16553    l-0.41699-0.83301C24.10317,18.04604,24.16323,17.86538,24.31118,17.79165z M13.99038,17.81997    c0.13232-0.09912,0.31982-0.07373,0.41992,0.05957l0.53516,0.71338h7.40527l0.33447-0.66748    c0.07373-0.14893,0.25439-0.21045,0.40234-0.13379c0.14795,0.07373,0.20801,0.25439,0.13379,0.40234L22.80435,19.027    c-0.05078,0.10156-0.1543,0.16553-0.26807,0.16553h-1.18762l-0.91882,1.45752c-0.05518,0.08691-0.15088,0.13965-0.25391,0.13965    H16.0104c-0.1084,0-0.20801-0.05811-0.26123-0.15234l-0.81628-1.44482h-0.13733c-0.09424,0-0.18311-0.04443-0.23975-0.11963    l-0.625-0.83301C13.8312,18.10707,13.85806,17.91909,13.99038,17.81997z M23.25161,21.73452l-0.34717,3.47119    c-0.01514,0.15479-0.14551,0.27002-0.29785,0.27002c-0.01025,0-0.02002-0.00049-0.03027-0.00146    c-0.16504-0.01611-0.28516-0.16309-0.26855-0.32812l0.34717-3.47119c0.0166-0.16504,0.16748-0.27783,0.32812-0.26855    C23.1481,21.4225,23.26821,21.56997,23.25161,21.73452z M25.8688,31.26332c-0.03516,0-0.07031-0.00635-0.10498-0.01904    c-2.06738-0.77295-4.17725-0.00879-4.19873,0c-0.15625,0.05615-0.32764-0.02197-0.38525-0.17676    c-0.05811-0.15527,0.02051-0.32764,0.17578-0.38574c0.09375-0.03467,2.33447-0.85205,4.61816,0    c0.15527,0.05811,0.23389,0.23096,0.17627,0.38623C26.10464,31.18862,25.99038,31.26332,25.8688,31.26332z M36.79104,33.03676    l0.02997,0.20197l-3.927,3.35449l-0.35754-5.59247c-8.33887-4.07916-16.73492-0.62207-17.0412-0.49158l-0.39319,6.14941    l0.00018,0.00024l-3.98615-3.49554l0.0069-0.04584l2.06726-13.78967l0.68732,3.74902l1.86963,2.07178    c0.0542,0.06006,0.08203,0.13965,0.07666,0.22021l-0.28644,4.47998c1.55847-0.59229,9.23187-3.13733,16.95593,0.47736    l-0.31696-4.95734c-0.00537-0.08057,0.02246-0.16016,0.07666-0.22021l1.86963-2.07178l0.65759-3.58691L36.79104,33.03676z" style="fill:#303030;"/></g></g></svg>