<svg id="logo" xmlns="http://www.w3.org/2000/svg" width="110" height="110" viewBox="0 0 110 110">
  <g id="Group_1" data-name="Group 1" transform="translate(0.024 -0.024)">
    <circle id="Ellipse_11" data-name="Ellipse 11" cx="55" cy="55" r="55" transform="translate(-0.024 0.024)" fill="#6bc0ff"/>
  </g>
  <g id="Group_7" data-name="Group 7" transform="translate(0.024 -0.024)">
    <path id="Path_35" data-name="Path 35" d="M83,76a6,6,0,0,0-3.043-2.982L65,69V63l-5.1,4a3,3,0,0,1-2.24,1h-5.31a3,3,0,0,1-2.24-1L45,63v6L30.043,73.018A6,6,0,0,0,27,76L23,87H87Z" fill="#3e3e3f"/>
    <path id="Path_36" data-name="Path 36" d="M72,47.258a2.28,2.28,0,0,0-2-2.222c-1,0-1,1.111-1,1.111V45.036c-.018-9-1.024-15-14-15s-13.982,6-14,15V53l4,10,5.1,4a3,3,0,0,0,2.24,1h5.31a3,3,0,0,0,2.24-1L65,63l3.193-7.982C71.039,54.827,72,50.517,72,47.258Z" fill="#fbc8c8"/>
    <path id="Path_37" data-name="Path 37" d="M41,45v1.111S41,45,40,45a2.28,2.28,0,0,0-2,2.222c0,3.259.961,7.568,3.807,7.76L45,62.964l5.1,3.995a3,3,0,0,0,2.24,1H55V30C42.024,30,41.018,36,41,45Z" fill="#fbd7d7"/>
    <path id="Path_38" data-name="Path 38" d="M69.268,36.391A16.247,16.247,0,0,0,72,28H48.134a9.07,9.07,0,0,0-9.015,10.072l2.9,17.467L45,63l5.1,4a3,3,0,0,0,2.24,1h5.31a3,3,0,0,0,2.24-1L65,63l2.984-7.461L70.272,38.91a2.341,2.341,0,0,0-.426-2.009A2.3,2.3,0,0,0,69.268,36.391ZM68,45.036l-2,10v.031l-3,6H62l-1.316-3.949a3,3,0,0,0-2.846-2.051H52.162a3,3,0,0,0-2.846,2.051L48,61.067H47l-3-6v-.031l-2-10V36s.011,5.447,13,5.958c.638.025,1.3.042,2,.042,5.351,0,8.786-1.784,11-4.076Z" fill="#f37a10"/>
    <path id="Path_39" data-name="Path 39" d="M42.016,55.539,45,63l5.1,4a3,3,0,0,0,2.24,1H55V55.067H52.162a3,3,0,0,0-2.846,2.051L48,61.067H47l-3-6v-.031l-2-10V36s.011,5.447,13,5.958V28H48.134a9.07,9.07,0,0,0-9.015,10.072" fill="#f99134"/>
    <g id="Group_2" data-name="Group 2">
      <path id="Path_40" data-name="Path 40" d="M51,58h8s0,3-4,3S51,58,51,58Z" fill="#fbd7d7"/>
    </g>
    <path id="Path_41" data-name="Path 41" d="M61.5,42.625a10.3,10.3,0,0,0-4.875,1.625h-3.25A10.3,10.3,0,0,0,48.5,42.625,12.5,12.5,0,0,0,42,44.25v.813h.812c0,4.875,1.625,7.312,5.857,7.312s5.112-4.062,5.112-5.189S55,45.875,55,45.875s1.219.184,1.219,1.311.88,5.189,5.112,5.189,5.857-2.437,5.857-7.312H68V44.25A12.505,12.505,0,0,0,61.5,42.625Z" fill="#3e3e3f"/>
    <g id="Group_4" data-name="Group 4">
      <g id="Group_3" data-name="Group 3">
        <path id="Path_42" data-name="Path 42" d="M48.5,44.25c-2.244,0-4.062,1.006-4.062,3.25a4.037,4.037,0,0,0,.8,2.419L50.56,44.6A5.714,5.714,0,0,0,48.5,44.25Z" fill="#9e9fa0"/>
      </g>
    </g>
    <g id="Group_6" data-name="Group 6">
      <g id="Group_5" data-name="Group 5">
        <path id="Path_43" data-name="Path 43" d="M61.579,44.25c-2.244,0-4.062,1.006-4.062,3.25a4.037,4.037,0,0,0,.8,2.419L63.639,44.6A5.718,5.718,0,0,0,61.579,44.25Z" fill="#9e9fa0"/>
      </g>
    </g>
  </g>
</svg>
